<?xml version="1.0" standalone="no"?>
<!DOCTYPE svg PUBLIC "-//W3C//DTD SVG 20010904//EN"
 "http://www.w3.org/TR/2001/REC-SVG-20010904/DTD/svg10.dtd">
<svg version="1.0" xmlns="http://www.w3.org/2000/svg"
 width="163.000000pt" height="163.000000pt" viewBox="0 0 163.000000 163.000000"
 preserveAspectRatio="xMidYMid meet">
<metadata>
Created by potrace 1.11, written by Peter Selinger 2001-2013
</metadata>
<g transform="translate(0.000000,163.000000) scale(0.100000,-0.100000)"
fill="#000000" stroke="none">
<path d="M624 1600 c-310 -70 -553 -324 -613 -640 -9 -53 -8 -253 2 -295 44
-178 114 -303 234 -421 98 -96 219 -163 358 -200 94 -25 302 -25 394 0 303 82
532 329 590 636 9 52 8 251 -2 295 -39 166 -110 297 -223 409 -112 113 -252
188 -409 222 -73 15 -250 12 -331 -6z m283 -84 c217 -24 444 -198 539 -413
136 -306 30 -674 -249 -865 -277 -190 -658 -154 -895 83 -51 51 -123 157 -150
220 -74 173 -73 397 4 565 96 214 314 381 533 410 25 3 47 7 49 9 4 3 109 -2
169 -9z"/>
<path d="M391 997 c-14 -14 -14 -64 0 -72 5 -4 25 -9 42 -11 118 -16 187 -51
246 -125 41 -50 71 -125 71 -177 1 -47 20 -72 54 -72 31 0 45 27 41 80 -12
167 -132 316 -298 369 -52 17 -142 22 -156 8z"/>
<path d="M1068 993 c-62 -16 -143 -61 -181 -101 l-28 -29 22 -39 c13 -21 23
-40 24 -42 1 -1 24 18 50 42 52 49 132 85 196 88 47 2 80 28 72 58 -11 42 -56
48 -155 23z"/>
</g>
</svg>
